<svg width="611" height="128" viewBox="0 0 611 128" fill="none" xmlns="http://www.w3.org/2000/svg">
<path d="M177.198 125.557C175.632 125.557 175.016 124.829 175.352 123.375L191.298 56.3988C191.858 53.9368 191.914 52.0344 191.466 50.6915C191.13 49.2368 190.123 48.5094 188.445 48.5094C186.43 48.5094 184.192 50.0201 181.73 53.0416C179.38 55.9511 176.695 61.5464 173.673 69.8275C173.226 71.2823 172.442 72.0097 171.323 72.0097C169.645 72.0097 169.197 71.0025 169.98 68.9882C172.442 61.2667 175.016 55.2237 177.702 50.8594C180.499 46.4951 183.297 43.4177 186.095 41.6272C188.892 39.8367 191.466 38.9414 193.816 38.9414C197.509 38.9414 200.139 40.3402 201.705 43.1379C203.272 45.8236 203.328 50.2999 201.873 56.5666L200.027 64.456C199.915 65.2393 200.083 65.687 200.53 65.7989C200.978 65.9108 201.37 65.631 201.705 64.9596C205.958 55.2237 209.818 48.4534 213.287 44.6486C216.757 40.8438 220.729 38.9414 225.205 38.9414C228.227 38.9414 230.465 39.7807 231.92 41.4593C233.486 43.026 234.27 45.2081 234.27 48.0058C234.27 50.8035 233.598 53.0416 232.255 54.7202C230.912 56.3988 229.178 57.2381 227.052 57.2381C225.261 57.2381 223.974 56.7904 223.191 55.8952C222.408 54.9999 221.792 53.9928 221.345 52.8737C221.009 51.6427 220.617 50.5796 220.17 49.6844C219.722 48.7891 218.995 48.3415 217.987 48.3415C216.309 48.3415 214.127 50.4677 211.441 54.7202C208.755 58.9726 205.846 64.7358 202.712 72.0097C199.691 79.1716 196.726 87.2289 193.816 96.1814C191.018 105.134 188.557 114.31 186.43 123.71C186.095 124.941 185.311 125.557 184.08 125.557H177.198Z" fill="white"/>
<path d="M108.913 127.067C104.772 127.067 101.919 125.221 100.352 121.528C98.8972 117.723 99.0091 112.743 100.688 106.589L113.948 57.9095C114.844 54.6642 115.067 52.1463 114.62 50.3558C114.172 48.5653 113.165 47.6701 111.598 47.6701C109.025 47.6701 106.395 49.6284 103.709 53.5451C101.135 57.4619 98.8972 62.8893 96.9948 69.8275C96.6591 71.0584 95.9317 71.6739 94.8126 71.6739C93.246 71.6739 92.7424 70.5549 93.3019 68.3167C95.8757 58.9166 99.2329 51.6987 103.373 46.6629C107.626 41.5152 112.27 38.9414 117.305 38.9414C121.334 38.9414 124.02 40.7879 125.363 44.4808C126.705 48.1737 126.482 53.2094 124.691 59.5881L111.263 108.267C109.136 115.989 109.864 119.849 113.445 119.849C115.683 119.849 118.257 118.339 121.166 115.317C124.076 112.296 127.097 108.155 130.231 102.896C133.476 97.6361 136.665 91.6492 139.798 84.9348C142.932 78.2204 145.785 71.1704 148.359 63.7846C150.933 56.3988 153.059 49.0689 154.738 41.795C155.073 40.564 155.857 39.9486 157.088 39.9486H163.802C165.369 39.9486 165.984 40.6759 165.648 42.1307L149.87 109.61C148.639 114.87 149.59 117.499 152.723 117.499C157.423 117.499 162.347 110.393 167.495 96.1814C167.942 94.7266 168.726 93.9992 169.845 93.9992C170.516 93.9992 170.964 94.2789 171.188 94.8385C171.523 95.398 171.523 96.1254 171.188 97.0207C168.166 106.533 164.585 113.918 160.445 119.178C156.304 124.438 151.94 127.067 147.352 127.067C139.295 127.067 136.609 121.192 139.295 109.442L143.659 90.8099C143.883 90.0265 143.715 89.5789 143.156 89.467C142.708 89.3551 142.316 89.6348 141.981 90.3063C135.49 103.735 129.503 113.247 124.02 118.842C118.536 124.326 113.501 127.067 108.913 127.067Z" fill="white"/>
<path d="M54.3483 127.067C47.4102 127.067 41.9269 124.214 37.8983 118.507C33.8698 112.687 31.8555 104.854 31.8555 95.0063C31.8555 87.7324 33.0305 80.7383 35.3805 74.024C37.7305 67.3096 40.8079 61.3226 44.6126 56.063C48.5293 50.8034 52.8376 46.6629 57.5376 43.6415C62.3495 40.5081 67.1614 38.9414 71.9733 38.9414C78.9114 38.9414 84.3948 41.795 88.4234 47.5022C92.4519 53.2094 94.4662 61.0429 94.4662 71.0025C94.4662 78.2764 93.2912 85.2705 90.9412 91.9849C88.5912 98.6992 85.4579 104.686 81.5412 109.946C77.7364 115.205 73.4281 119.402 68.6162 122.535C63.9162 125.557 59.1602 127.067 54.3483 127.067ZM54.0126 123.039C57.5936 123.039 61.0626 121.304 64.4198 117.835C67.8888 114.366 71.0222 109.778 73.8198 104.071C76.6174 98.3635 78.8555 92.0408 80.5341 85.1027C82.2126 78.0526 83.0519 71.0025 83.0519 63.9524C83.0519 49.9642 79.415 42.97 72.1412 42.97C68.6722 42.97 65.2031 44.7046 61.7341 48.1737C58.265 51.5308 55.1317 56.063 52.334 61.7702C49.6483 67.4775 47.4662 73.8561 45.7876 80.9062C44.109 87.8444 43.2698 94.8385 43.2698 101.889C43.2698 115.989 46.8507 123.039 54.0126 123.039Z" fill="white"/>
<path d="M1.77299 125.559C0.318229 125.559 -0.241295 124.831 0.0944197 123.376L17.048 50.8613C18.0551 46.7208 16.7123 44.6505 13.0194 44.6505H9.49442C7.70395 44.6505 6.80871 43.8672 6.80871 42.3005C6.80871 40.7338 7.81585 39.9505 9.83014 39.9505C13.2992 39.9505 15.873 39.5028 17.5516 38.6076C19.342 37.7123 20.517 35.9218 21.0766 33.2361C22.5313 26.8575 24.6575 21.2062 27.4551 16.2823C30.3647 11.2466 33.8337 7.27389 37.8623 4.36433C41.8909 1.45478 46.3111 0 51.123 0C55.0397 0 58.173 0.951202 60.523 2.85361C62.9849 4.6441 64.2159 7.16199 64.2159 10.4073C64.2159 12.8692 63.5445 14.8835 62.2016 16.4502C60.9706 17.905 59.404 18.6324 57.5016 18.6324C55.1516 18.6324 53.5849 17.9609 52.8016 16.618C52.1302 15.2752 51.6825 13.7085 51.4587 11.918C51.3468 10.1275 51.0111 8.56081 50.4516 7.21794C49.8921 5.87507 48.6052 5.20364 46.5909 5.20364C44.0171 5.20364 41.723 6.49055 39.7087 9.06439C37.8063 11.5263 36.0718 16.2264 34.5051 23.1646L31.148 37.7683C30.8123 39.2231 31.4278 39.9505 32.9944 39.9505H46.423C48.5492 39.9505 49.3885 40.7338 48.9409 42.3005C48.6052 43.8672 47.598 44.6505 45.9194 44.6505H31.3159C30.1968 44.6505 29.4694 45.21 29.1337 46.3291L11.173 123.712C10.8373 124.943 10.0539 125.559 8.823 125.559H1.77299Z" fill="white"/>
<path d="M562.408 35.9043C578.17 35.9043 590.183 39.6004 598.444 46.9926C606.815 54.3848 611 65.6905 611 80.9097V86.4539H546.428C546.428 92.6503 547.787 97.3247 550.504 100.477C553.331 103.63 557.733 105.206 563.712 105.206C569.148 105.206 573.115 104.065 575.616 101.782C578.225 99.4989 579.529 96.4551 579.529 92.6503H611C611 103.086 607.032 111.239 599.097 117.11C591.161 122.98 579.584 125.915 564.364 125.915C548.384 125.915 535.992 122.219 527.186 114.827C518.381 107.326 513.979 96.0202 513.979 80.9097C513.979 66.1253 518.272 54.9283 526.86 47.3187C535.448 39.7091 547.297 35.9043 562.408 35.9043ZM563.712 56.6133C553.494 56.6133 547.787 61.4508 546.591 71.1259H578.225C578.225 66.6689 576.92 63.1358 574.311 60.5268C571.811 57.9178 568.278 56.6133 563.712 56.6133Z" fill="#F52E63"/>
<path d="M476.638 35.9043C486.64 35.9043 494.14 38.6764 499.141 44.2205C504.142 49.7647 506.642 57.7548 506.642 68.1908V123.958H474.193V72.1043C474.193 68.4082 473.214 65.4731 471.257 63.2989C469.409 61.016 466.746 59.8746 463.267 59.8746C459.245 59.8746 455.984 61.1791 453.484 63.7881C450.984 66.3971 449.733 69.604 449.733 73.4088V123.958H417.284V37.8611H443.863L445.983 50.9061C449.353 46.3403 453.756 42.6986 459.191 39.9809C464.735 37.2632 470.551 35.9043 476.638 35.9043Z" fill="#F52E63"/>
<path d="M379.131 123.959L377.011 110.914C373.641 115.588 369.184 119.284 363.64 122.002C358.204 124.611 352.443 125.915 346.355 125.915C336.354 125.915 328.853 123.143 323.853 117.599C318.852 112.055 316.352 104.065 316.352 93.6289V37.8613H348.801V89.7154C348.801 93.4115 349.725 96.401 351.573 98.6839C353.53 100.858 356.248 101.945 359.726 101.945C363.749 101.945 367.01 100.641 369.51 98.0316C372.01 95.4226 373.26 92.2157 373.26 88.4109V37.8613H405.71V123.959H379.131Z" fill="#F52E63"/>
<path d="M309.773 37.8616V59.8751H291.51V92.6508C291.51 96.5643 292.163 99.4451 293.467 101.293C294.772 103.032 297.163 103.902 300.642 103.902H309.773V122.981C307.164 123.85 303.794 124.557 299.663 125.1C295.533 125.644 291.945 125.916 288.901 125.916C279.335 125.916 271.943 124.176 266.725 120.698C261.616 117.219 259.061 111.294 259.061 102.924V59.8751H246.995V37.8616H260.366L267.377 11.7715H291.51V37.8616H309.773Z" fill="#F52E63"/>
</svg>
